<?xml version="1.0" encoding="UTF-8" standalone="no"?>
<svg
   xmlns:sketch="http://www.bohemiancoding.com/sketch/ns"
   xmlns:dc="http://purl.org/dc/elements/1.1/"
   xmlns:cc="http://creativecommons.org/ns#"
   xmlns:rdf="http://www.w3.org/1999/02/22-rdf-syntax-ns#"
   xmlns:svg="http://www.w3.org/2000/svg"
   xmlns="http://www.w3.org/2000/svg"
   xmlns:xlink="http://www.w3.org/1999/xlink"
   xmlns:sodipodi="http://sodipodi.sourceforge.net/DTD/sodipodi-0.dtd"
   xmlns:inkscape="http://www.inkscape.org/namespaces/inkscape"
   width="128px"
   height="128px"
   viewBox="0 0 128 128"
   version="1.1"
   id="svg2"
   inkscape:version="0.48.5 r10040"
   sodipodi:docname="icon.svg">
  <title
     id="title2990">Icon for the birthday app</title>
  <metadata
     id="metadata14">
    <rdf:RDF>
      <cc:Work
         rdf:about="">
        <dc:format>image/svg+xml</dc:format>
        <dc:type
           rdf:resource="http://purl.org/dc/dcmitype/StillImage" />
        <dc:title>Icon for the birthday app</dc:title>
        <dc:creator>
          <cc:Agent>
            <dc:title>Pierre Haessig</dc:title>
          </cc:Agent>
        </dc:creator>
        <dc:date>May 2015</dc:date>
      </cc:Work>
    </rdf:RDF>
  </metadata>
  <sodipodi:namedview
     pagecolor="#ffffff"
     bordercolor="#666666"
     borderopacity="1"
     objecttolerance="10"
     gridtolerance="10"
     guidetolerance="10"
     inkscape:pageopacity="0"
     inkscape:pageshadow="2"
     inkscape:window-width="1366"
     inkscape:window-height="741"
     id="namedview12"
     showgrid="false"
     inkscape:zoom="0.46093751"
     inkscape:cx="-292.38235"
     inkscape:cy="78.687569"
     inkscape:window-x="0"
     inkscape:window-y="27"
     inkscape:window-maximized="1"
     inkscape:current-layer="g3899"
     showguides="false"
     inkscape:guide-bbox="true"
     inkscape:snap-global="true"
     inkscape:object-nodes="true">
    <inkscape:grid
       type="xygrid"
       id="grid3760"
       empspacing="16"
       visible="true"
       enabled="true"
       snapvisiblegridlinesonly="true" />
    <sodipodi:guide
       orientation="1,0"
       position="168,64"
       id="guide3847" />
    <sodipodi:guide
       orientation="1,0"
       position="64,64"
       id="guide3888" />
    <sodipodi:guide
       orientation="0,1"
       position="64,64"
       id="guide3890" />
  </sodipodi:namedview>
  <!-- Generator: Sketch 3.0.2 (7799) - http://www.bohemiancoding.com/sketch -->
  <description
     id="description6">Created with Sketch.</description>
  <path
     sodipodi:type="arc"
     style="fill:#191c5a;fill-opacity:1;fill-rule:evenodd;stroke:none"
     id="path2991-2"
     sodipodi:cx="129.35593"
     sodipodi:cy="128.27118"
     sodipodi:rx="63.18644"
     sodipodi:ry="63.18644"
     d="m 192.54237,128.27118 a 63.18644,63.18644 0 1 1 -126.372883,0 63.18644,63.18644 0 1 1 126.372883,0 z"
     transform="matrix(0.55692021,0,0,1,95.938874,-72.372104)" />
  <defs
     id="defs8">
    <linearGradient
       id="linearGradient3761">
      <stop
         style="stop-color:#4e748b;stop-opacity:1;"
         offset="0"
         id="stop3763" />
      <stop
         style="stop-color:#393e3f;stop-opacity:1;"
         offset="1"
         id="stop3765" />
    </linearGradient>
    <clipPath
       clipPathUnits="userSpaceOnUse"
       id="clipPath3905">
      <path
         transform="translate(-65.355927,-64.271179)"
         d="m 192.54237,128.27118 a 63.18644,63.18644 0 1 1 -126.372883,0 63.18644,63.18644 0 1 1 126.372883,0 z"
         sodipodi:ry="63.18644"
         sodipodi:rx="63.18644"
         sodipodi:cy="128.27118"
         sodipodi:cx="129.35593"
         id="path3907"
         style="opacity:0.4618182;fill:#204a87;fill-opacity:1;fill-rule:evenodd;stroke:none"
         sodipodi:type="arc" />
    </clipPath>
  </defs>
  <path
     sodipodi:type="arc"
     style="fill:#191c5a;fill-opacity:1;fill-rule:evenodd;stroke:none"
     id="path2991"
     sodipodi:cx="129.35593"
     sodipodi:cy="128.27118"
     sodipodi:rx="63.18644"
     sodipodi:ry="63.18644"
     d="m 192.54237,128.27118 a 63.18644,63.18644 0 1 1 -126.372883,0 63.18644,63.18644 0 1 1 126.372883,0 z"
     transform="translate(-65.355927,-64.271179)" />
  <g
     id="Page-1"
     sketch:type="MSPage"
     transform="matrix(0.9,0,0,0.9,6.4,6.4)"
     style="fill:none;stroke:none" />
  <g
     id="g3899"
     clip-path="url(#clipPath3905)"
     style="fill:#babdb6">
    <path
       d="M 119.72097,96 A 55.720974,24.880058 0 1 1 8.279026,96 55.720974,24.880058 0 1 1 119.72097,96 z"
       sodipodi:ry="24.880058"
       sodipodi:rx="55.720974"
       sodipodi:cy="96"
       sodipodi:cx="64"
       id="path4177"
       style="color:#000000;fill:#191c5a;fill-opacity:1;fill-rule:evenodd;stroke:none;stroke-width:0.35299998999999999;marker:none;visibility:visible;display:inline;overflow:visible;enable-background:accumulate"
       sodipodi:type="arc"
       transform="matrix(1.9682717,0,0,1.9401852,-61.96939,-107.56722)"
       clip-path="none" />
    <rect
       y="86.960472"
       x="14.957108"
       height="49.665264"
       width="98.085785"
       id="rect3895"
       style="color:#000000;fill:#b75300;fill-opacity:1;fill-rule:nonzero;stroke:none;stroke-width:0.99999994000000003;marker:none;visibility:visible;display:inline;overflow:visible;enable-background:accumulate;opacity:1" />
    <path
       clip-path="none"
       transform="matrix(0.88015139,0,0,0.59251474,7.6703108,30.079057)"
       sodipodi:type="arc"
       style="color:#000000;fill:#ff8724;fill-opacity:1;fill-rule:nonzero;stroke:none;stroke-width:1.38475114;marker:none;visibility:visible;display:inline;overflow:visible;enable-background:accumulate"
       id="path3787"
       sodipodi:cx="64"
       sodipodi:cy="96"
       sodipodi:rx="55.720974"
       sodipodi:ry="24.880058"
       d="M 119.72097,96 A 55.720974,24.880058 0 1 1 8.279026,96 55.720974,24.880058 0 1 1 119.72097,96 z" />
  </g>
  <use
     x="0"
     y="0"
     xlink:href="#g3829"
     id="use3834"
     transform="matrix(0.70608845,0,0,0.70608845,-78.591454,15.247403)"
     width="128"
     height="128" />
  <g
     id="g3829">
    <g
       id="g4030"
       style="color:#000000;fill:#ae0005;fill-opacity:1;fill-rule:evenodd;stroke:none;marker:none;visibility:visible;display:inline;overflow:visible;enable-background:accumulate;stroke-width:0.25491944000000000">
      <path
         sodipodi:nodetypes="ccccc"
         inkscape:connector-curvature="0"
         id="rect3794"
         d="m 160,64 16,0 0,32 -16,0 z"
         style="color:#000000;fill:#ae0005;fill-opacity:1;fill-rule:evenodd;stroke:none;stroke-width:0.25491944000000000;marker:none;visibility:visible;display:inline;overflow:visible;enable-background:accumulate" />
      <path
         clip-path="none"
         transform="matrix(0.14357252,0,0,0.09665251,158.81136,86.721359)"
         sodipodi:type="arc"
         style="color:#000000;fill:#ae0005;fill-opacity:1;fill-rule:evenodd;stroke:none;stroke-width:2.16401728999999987;marker:none;visibility:visible;display:inline;overflow:visible;enable-background:accumulate"
         id="path3827"
         sodipodi:cx="64"
         sodipodi:cy="96"
         sodipodi:rx="55.720974"
         sodipodi:ry="24.880058"
         d="m 119.72097,96 c 0,13.74088 -24.947126,24.88006 -55.72097,24.88006 C 33.226156,120.88006 8.279026,109.74088 8.279026,96 8.279026,82.259123 33.226156,71.119942 64,71.119942 c 30.773844,0 55.72097,11.139181 55.72097,24.880058 z" />
    </g>
    <path
       clip-path="none"
       transform="matrix(0.14357252,0,0,0.09665251,158.81136,54.721359)"
       sodipodi:type="arc"
       style="color:#000000;fill:#ff8724;fill-opacity:1;fill-rule:nonzero;stroke:none;stroke-width:8.48902417;marker:none;visibility:visible;display:inline;overflow:visible;enable-background:accumulate"
       id="path3787-0"
       sodipodi:cx="64"
       sodipodi:cy="96"
       sodipodi:rx="55.720974"
       sodipodi:ry="24.880058"
       d="m 119.72097,96 c 0,13.74088 -24.947126,24.88006 -55.72097,24.88006 C 33.226156,120.88006 8.279026,109.74088 8.279026,96 8.279026,82.259123 33.226156,71.119942 64,71.119942 c 30.773844,0 55.72097,11.139181 55.72097,24.880058 z" />
    <path
       inkscape:connector-curvature="0"
       style="color:#000000;fill:#ff8724;fill-opacity:1;fill-rule:nonzero;stroke:none;marker:none;visibility:visible;display:inline;overflow:visible;enable-background:accumulate"
       d="M 168,9.4576558 C 165.70832,28.474592 145.08302,57 168,57 c 22.91698,0 2.29168,-28.525408 0,-47.5423442 z"
       id="path3849-5" />
    <path
       id="path3909"
       d="m 168,39.994039 c -0.90973,6.794229 -9.09737,16.985576 0,16.985576 9.09737,0 0.90973,-10.191347 0,-16.985576 z"
       style="color:#000000;fill:#191c5a;fill-opacity:1;fill-rule:evenodd;stroke:none;marker:none;visibility:visible;display:inline;overflow:visible;enable-background:accumulate"
       inkscape:connector-curvature="0" />
  </g>
  <use
     height="128"
     width="128"
     transform="matrix(0.70608845,0,0,0.70608845,-54.62286,23.740693)"
     id="use3838"
     xlink:href="#g3829"
     y="0"
     x="0" />
  <use
     x="0"
     y="0"
     xlink:href="#g3829"
     id="use3840"
     transform="matrix(0.70608845,0,0,0.70608845,-30.654262,15.247403)"
     width="128"
     height="128" />
</svg>
